<?xml version="1.0" encoding="UTF-8"?>
<svg id="Lager_1" xmlns="http://www.w3.org/2000/svg" version="1.1" viewBox="0 0 306.04 110.26">
  <!-- Generator: Adobe Illustrator 29.8.3, SVG Export Plug-In . SVG Version: 2.1.1 Build 3)  -->
  <defs>
    <style>
      .st0 {
        fill: #990a2c;
      }
    </style>
  </defs>
  <path class="st0" d="M109.32,9.95c0,5.49-4.45,9.95-9.95,9.95s-9.95-4.45-9.95-9.95S93.88,0,99.38,0s9.95,4.45,9.95,9.95Z"/>
  <path class="st0" d="M138.44,91.49c8.2,0,15.06-1.71,20.38-5.07,5.53-3.49,8.33-8.06,8.34-13.57,0,0,.07-1.35.07-1.35v-.06c0-4.38-1.7-8.09-5.04-11.02-3.17-2.77-8.54-5.41-15.98-7.84,0,0-6.45-2.11-6.45-2.11-5.72-1.88-8.74-4.13-8.74-6.5,0-2.5,1.18-5.83,11.38-5.83,4.23,0,10.09.83,17.42,2.46l1.82.41v-13l-4.06-.53c-6.06-.76-11.23-1.15-15.36-1.15-8.12,0-14.64,1.52-19.37,4.52-4.5,2.85-6.99,6.74-7.39,11.58-.13.83-.2,1.68-.2,2.54,0,7.66,6.15,13.53,18.29,17.45l7.77,2.57c4.39,1.44,9.61,3.88,9.61,7.39,0,1.94-.99,3.48-3.13,4.84-2.28,1.46-5.23,2.2-8.77,2.2-6.27,0-13.77-1.65-22.29-4.9l-2.03-.77v14.16l1.13.28c8.81,2.18,16.4,3.29,22.59,3.29Z"/>
  <path class="st0" d="M115.46,42.19s0-.04,0-.06c0,0,0-.02,0-.02v.08Z"/>
  <polygon class="st0" points="92.38 27.72 92.35 90.1 106.5 90.1 106.5 27.72 92.38 27.72"/>
  <path class="st0" d="M306.03,68.44h0l-.03-40.63h-13.55s-28.94,48.31-29.02,48.44c-.17.22-.37.43-.57.63,0-3.01-.01-21.57-.01-21.57v-27.51h-14.18v55.78c.01,2.34.65,4.11,1.95,5.42,2.45,2.45,6.5,2.45,10.79,2.45,6.69,0,10.94-5.16,13.56-9.04,0,0,13.03-19.24,16.13-23.82v23.22c-.03.36-.85,10.07-6.83,12.62-2.12.9-7.81,3-14.8,3.08H33s-32.99-.01-32.99-.01v12.71h29.21l240.06.04h.09c.22-.03,1.83-.08,3.26-.1,6.1-.32,14.97-1.25,21.95-5.74,7.61-4.89,11.46-13.05,11.45-24.24v-11.73Z"/>
  <polygon class="st0" points="237.44 36.1 237.44 36.11 237.44 36.11 237.44 36.1"/>
  <path class="st0" d="M236.9,35.94c-6.86-9.62-19.64-10.82-29.32-8.74-9.72,2.08-15.34,9.46-19.68,16.29V7.66h0V1.5h-14.22v4.65h-.01v67.15h13.17c1.55-4.01,3.84-8.69,6.56-13.41,1.06-1.85,2.18-3.67,3.3-5.4.98-1.58,1.96-3.01,3.02-4.39,2.6-3.57,5.04-6.31,6.87-7.74l.02-.02.31-.28.16-.13c1.96-1.77,4.83-2.78,7.88-2.78,4.92,0,9.12,2.61,9.99,6.2,1.63,6.16-2.32,13.05-3.57,15.01-2.48,3.9-5.4,7.3-8.69,10.1-.04.03-.22.19-.22.19-3.31,2.88-9.21,5.47-15.79,6.94-5.99,1.34-11.84,1.6-16.07.72h-.03s-.03-.01-.03-.01c-2.22-.32-4.55-.75-6.94-1.28v13.93c3.73.43,7.54.6,11.36.49.05,0,.19,0,.19,0h.03s.03-.01.03-.01c19.2-.6,35.5-7.75,44.73-19.6,4.5-5.79,10.51-15.28,10.51-24.66,0-3.85-1.01-7.68-3.55-11.23Z"/>
  <path class="st0" d="M21.81,13.26h36V1.48H6.8s-.35.01-.35.01v25.46h-.02v6.3h0v.02H0v11.76h6.44v40.31h0v4.75h15.37v-6.15h0v-38.92h34.06v-11.76H21.81V13.26Z"/>
  <polygon class="st0" points="80.18 1.48 79.91 1.48 79.91 1.47 66.03 1.47 66.03 1.48 66.02 1.48 66.02 7.65 66.03 7.65 66.04 23 66.01 90.1 80.17 90.1 80.17 7.65 80.18 7.65 80.18 1.48"/>
</svg>