<?xml version="1.0" encoding="utf-8"?>
<!-- Generator: Adobe Illustrator 24.3.0, SVG Export Plug-In . SVG Version: 6.00 Build 0)  -->
<svg version="1.1" id="Layer_1" xmlns="http://www.w3.org/2000/svg" xmlns:xlink="http://www.w3.org/1999/xlink" x="0px" y="0px"
	 viewBox="0 0 650 184" style="enable-background:new 0 0 650 184;" xml:space="preserve">
<style type="text/css">
	.st0{fill:#002F6A;}
	.st1{fill:#FED141;}
</style>
<path class="st0" d="M175.7,61.5L175.7,61.5L175.7,61.5L175.7,61.5z"/>
<path class="st0" d="M162.6,67.5L162.6,67.5L162.6,67.5L162.6,67.5z"/>
<rect x="3.5" y="12.5" class="st1" width="165.6" height="158.2"/>
<path d="M140.1,55.9c-0.5,0.6-1.1,2.3-1.5,3c-2.3,3.2-3.8,4.8-2.8,5.4c2,1.2,4.3,1.3,6.1,2.4c0.5,0.3-1.2,2-2.4,4.2
	c-1.6,3.1-5.4,8.4-7.1,10c-1-3.3-1.1-6.7-3.3-9.8c-1-1.5-2.1-2.9-3.2-4.4c-1.2-1.6-2.9-3.1-4.9-4.8c-2.1-1.8-8.1-2.7-12.5-3.2
	c-3.1-0.3-6.5-1-9.9-1c-1.7,0-3.5-0.2-5.1-0.1s-3.3,0.5-4.8,0.3c-1-0.1-1.9-0.6-1.9-1.7c0-2.8,0.3-3.6,2.3-6
	c2.5-3.1,3.3-4.5,3.3-8.8c0-2.3-1.5-5.4-3.6-8.2c-1.8-2.4-5.1-3.7-9.3-3.7c-2,0-3.2,0.1-5.2,1.5c-0.8,0.6-2.6,1.8-3.3,2.5
	c-2.8,3-4,12.8-0.7,15.6c0.7,0.6,2.1,2.1,2.1,2.1s1.3,2.1,1.3,3.6c0,1.7,0.3,3.1-2,3.6l-9.9,0.3c0,0-10.8,1.3-14.2,1.4
	c-2,0-7.6,1.3-9.9,1.1c-1.1-4.5-2.2-8.2-2.2-10.5c0-0.7,0-2.4,1.7-2.8c1.1-0.2,2.5-0.4,4-0.7c1.1-0.3,2.3-0.8,3.5-1l-0.3-2.7
	c0,0-0.6-2.4-0.8-3.1c-0.5-1.9-0.5-3.3-1.4-3.7c-1.1-0.4-3.3,0.6-6.9,1.1c-3.6,0.5-9.7,0.3-13.7,0.9c-3.4,0.5-3.7,1.8-3.8,3.3
	c0,1.2,0.8,3.7,0.8,3.7l0.5,3.7c0,0,1.1,1.5,5.4,0.9c1.3-0.2,2.5-0.5,2.9,1c0.9,3.5,1.8,7.1,1.8,7.1l1.7,8.8c0,0,0.7,5.6,1.3,8.3
	c0.6,2.9,1.7,5.6,2.2,7.5c0.9,3.6,0.7,3.7,4.6,2.9c2.3-0.5,2.5-1.6,2-5.1c-0.4-2.5-1-6.5-1-6.5s-0.9-2.8-1.1-4.1
	c0.8-0.4,4.2-0.8,4.2-0.8s4.1-1.3,6.5-1.5c2.6-0.2,8.1-0.7,8.1-0.7s4.6,0.4,6.5,0.6c2.2,0.2,3.6,0.1,5,0c0.1,1.2,0.8,6.6,0.8,6.6
	s0.6,6.1,0.8,7.5c0.4,2.4-0.2,8.2-0.2,8.2S69.9,97,68,98.9c-1.8,1.8-5.5,4.7-5.5,4.7s-5,5.2-7,7.8c-1.9,2.5-4.3,7.9-4.3,7.9
	s-4,7-4.6,11.6c-0.4,2.9-2.1,7.6-2.6,11.6c-0.3,2.1-0.5,5.3,0.9,6.2c7,4.6,8.6-4.2,9.6-9.2c0.9-4.7,3-9,4.9-13.5
	c1.1-2.6,6.1-9.7,6.1-9.7s4.2-4.7,6.6-6.8c1.7-1.5,2.9-3.6,4.9-4.1c1.6-0.4,2.7-0.8,4-1.2c3-0.8,6.1-0.4,9,1.6c2.7,1.8,8,5.5,8,5.5
	s4.5,4.5,6.3,7.2c2.2,3.2,4.6,6.1,6.3,9.5c1,1.9,3.7,9.4,3.7,9.4s1.6,7.6,2,9.4c0.4,1.9,2.8,6.5,4,6.8c2.2,0.4,2.6,0.2,4.2-0.2
	c3.4-1,3.5-5.5,2.4-10c-0.4-1.9-2-5.6-2-5.6s-1.3-3.4-1.7-4.7c-1.7-4.5-5.4-13.7-5.4-13.7s-6-9.1-9.4-12.8c-1.5-1.6-3.3-3.7-5.4-5.3
	c-3.7-3-7.1-7.1-8.4-10.2c-0.8-1.8-1.4-5.7-1.4-5.7s-0.3-2.4-0.4-3.9c-0.1-1.4,0.1-3.2,0.1-4.7c-0.1-2.9-0.3-5.5-0.4-7.4
	c3.7-0.5,2.1-0.6,9.2-1.4c1.7-0.2,5.2-1,7.9-0.6c1.9,0.3,5,1.1,5,1.1s3.2,1.5,4.8,2.8c1.7,1.3,2.7,2.8,3.5,4.8
	c1.3,3.2,3.1,7.4,3,11.7c-1.3,1.6-4,5.3-4,5.3s-2.2,1.9-3.5,3c-0.7,0.7-2.2,1.8-1.4,2.6c1.3,1.4,4.1,3.1,4.8,2.7
	c1.7-0.9,3.1-2.1,4.6-3.4c0,0,3.2-3.5,4.4-5c2.5-3,4.3-5.6,7-8.8c1.8-2.2,5.5-6.9,5.5-6.9s3.2-4.2,4.5-6.2c1.2-2,2.4-4.1,3.2-6.3
	c1.1-2.8,2.2-5.3,2.9-8.1c1.7-6-0.5-8.5-3.4-8.5c-1.6,0-5.3,2.1-5.3,2.1S141.3,53.5,140.1,55.9z"/>
<g>
	<path d="M294.6,79.3c0,16.1-12.2,26.5-32.2,26.5h-48.3V12.7h47.2c19.4,0,31,8.5,31,23.5c0,10.4-6.4,18.1-17.5,20.9
		C287.6,58.9,294.6,67,294.6,79.3z M241.6,31.1v18.8h10.6c6.6,0,11-3.3,11-9.6c0-6-4.5-9.2-11-9.2C252.2,31.1,241.6,31.1,241.6,31.1
		z M265.5,77c0-6.4-4.7-10.1-12.1-10.1h-11.8v20.6h11.8C261,87.5,265.5,83.4,265.5,77z"/>
</g>
<g>
	<path d="M372.5,86.2v19.7h-68V12.7h67.1v19.7H332v16.3h37.4V68H332v18.2H372.5z"/>
</g>
<g>
	<path d="M384.9,105.9V12.7h27.4v93.2C412.3,105.9,384.9,105.9,384.9,105.9z"/>
</g>
<g>
	<path d="M551.6,86.2v19.7h-68V12.7h67.1v19.7h-39.6v16.3h37.4V68h-37.4v18.2H551.6z"/>
</g>
<g>
	<path d="M601.9,71.7h-10.4v34.1h-27.4V12.7h44.5c23.2,0,35.8,10.4,35.8,29.4c0,11.9-6.3,21.1-16.8,25.6l18.9,38.2h-29.4L601.9,71.7
		z M591.5,54h10.9c8.7,0,13.4-4.2,13.4-11.9c0-7.3-4.5-11-13.4-11h-10.9V54z"/>
</g>
<g>
	<path d="M243.2,160.9c0,5.5-3.9,9.8-11.8,9.8h-16.3v-34.9h15.7c8,0,11.6,3.9,11.6,9c0,3.6-2.2,6.6-6.3,7.7
		C240.5,153.2,243.2,156.3,243.2,160.9z M223.3,141.7v8.5h5.2c3.7,0,5.2-1.9,5.2-4.3c0-2.5-1.6-4.2-5.2-4.2H223.3z M234.5,160.2
		c0-2.7-1.8-4.5-5.3-4.5h-5.9v9.2h5.7C232.8,164.9,234.5,162.8,234.5,160.2z"/>
	<path d="M259.2,158.1l-11.6-22.2h8.7l6.1,12.9c0.4,0.9,0.7,1.8,0.8,2.6h0.1c0.1-0.8,0.4-1.7,0.8-2.6l6.1-12.9h8.8l-11.5,22.2v12.6
		h-8.3V158.1z"/>
	<path d="M283,153.3c0-10.9,6.6-18.3,17.3-18.3c9.1,0,14.1,4.9,15.2,10.7l-8.2,1.5c-0.6-3.3-2.7-6-7-6c-5.5,0-8.7,4.6-8.7,12
		c0,7.3,3,11.9,8.8,11.9c5.3,0,7.7-4.1,7.7-7.2v-0.7h-8.6v-5.9h16.1v19.4h-5.9l-0.3-5.1c-1.8,3.7-5.6,5.9-10.9,5.9
		C288.8,171.5,283,164.4,283,153.3z"/>
	<path d="M324.5,153.3c0-10.9,6.6-18.3,17.3-18.3c9.1,0,14.1,4.9,15.2,10.7l-8.2,1.5c-0.6-3.3-2.7-6-7-6c-5.5,0-8.7,4.6-8.7,12
		c0,7.3,3,11.9,8.8,11.9c5.3,0,7.7-4.1,7.7-7.2v-0.7H341v-5.9h16.1v19.4h-5.9l-0.3-5.1c-1.8,3.7-5.6,5.9-10.9,5.9
		C330.3,171.5,324.5,164.4,324.5,153.3z"/>
	<path d="M368.2,135.8h11.4l6.4,21.4c0.5,1.7,0.7,3,0.8,4.2h0.1c0.1-1.2,0.4-2.6,0.9-4.3l6.1-21.3h11.6v34.9h-7.6v-23.8
		c0-1.3,0-2.6,0.2-3.9H398c-0.1,1-0.4,2.5-0.7,3.4l-7,24.3h-7l-7.3-24.3c-0.3-0.9-0.6-2.4-0.7-3.3h-0.1c0.1,1.2,0.2,2.5,0.2,3.9
		v23.8h-7.1L368.2,135.8L368.2,135.8z"/>
	<path d="M438.5,162.6h-12.9l-2.7,8.1h-8.3l12.7-34.9h9.5l12.7,34.9h-8.3L438.5,162.6z M436.6,156.7l-3.2-9.7
		c-0.5-1.5-0.9-3.1-1.3-4.9H432c-0.3,1.8-0.8,3.4-1.3,4.9l-3.2,9.7H436.6z"/>
	<path d="M479.4,142.4h-10.2v28.3H461v-28.3h-10.1v-6.6h28.5L479.4,142.4L479.4,142.4z"/>
	<path d="M512.5,164.6v6.1h-24.2v-34.9h23.9v6.1h-15.6v7.9h14.7v6.1h-14.7v8.6L512.5,164.6L512.5,164.6z"/>
	<path d="M536.7,157.3h-5v13.4h-8.3v-34.9h15.3c8.8,0,12.8,4.3,12.8,10.7c0,4.4-2.3,8.1-6.8,9.6l7.7,14.6h-9L536.7,157.3z
		 M531.7,151.7h5.3c4,0,5.8-2,5.8-5.1c0-3-1.7-4.9-5.8-4.9h-5.3V151.7z"/>
	<path d="M562.3,170.7v-34.9h8.3v34.9H562.3z"/>
	<path d="M603.7,162.6h-12.9l-2.7,8.1h-8.3l12.7-34.9h9.5l12.7,34.9h-8.3L603.7,162.6z M601.8,156.7l-3.2-9.7
		c-0.5-1.5-0.9-3.1-1.3-4.9h-0.1c-0.3,1.8-0.8,3.4-1.3,4.9l-3.2,9.7H601.8z"/>
	<path d="M623.9,135.8h8.3v28.1h14.1v6.7h-22.4L623.9,135.8L623.9,135.8z"/>
</g>
<g>
	<path d="M421.8,84c3.1,0.4,5.8,0.6,8.7,0.6c8.4,0,11.9-3,11.9-11.5V12.7h27.4v65c0,20.4-15.9,28.8-36,28.8c-4.1,0-8.8-0.3-12.1-0.8
		V84H421.8z"/>
</g>
</svg>
