<svg xmlns="http://www.w3.org/2000/svg" height="45.973" width="279.64"><defs><clipPath id="a"><path d="M0 0h360.77v331.547H0z"/></clipPath></defs><path d="M76.237 17.932V7.784c0-.512 0-.768.065-1.492h-.044c-.255.66-.49 1.023-.703 1.385l-3.774 6.077h-1.023L66.77 7.677a6.182 6.182 0 0 1-.725-1.385h-.042c.085.724.085.98.085 1.492v10.148h-1.557V3.882h1.6l4.434 6.695c.363.555.554.896.703 1.236h.022c.15-.34.299-.661.66-1.236l4.222-6.694h1.62v14.05h-1.556M95.638 16.312c-1.236 1.194-2.899 1.833-4.84 1.833-1.897 0-3.538-.618-4.754-1.748-1.385-1.28-2.196-3.176-2.196-5.415 0-2.11.746-3.923 1.983-5.202 1.237-1.258 2.964-2.004 4.968-2.004 2.131 0 3.944.831 5.18 2.218 1.109 1.278 1.77 3.005 1.77 4.988 0 2.195-.789 4.05-2.111 5.33zm-4.84-11.044c-3.24 0-5.266 2.24-5.266 5.714 0 3.475 2.026 5.714 5.267 5.714 3.24 0 5.266-2.239 5.266-5.714 0-3.262-1.812-5.714-5.266-5.714M103.803 17.932V3.882h1.557v12.6h5.33v1.45h-6.887M126.21 17.932l-7.12-9.466c-.831-1.109-1.215-1.641-1.472-2.196h-.041c.02.47.041.96.041 1.706v9.956h-1.555V3.882h1.62l6.822 9.125c.96 1.28 1.342 1.813 1.6 2.367h.042a33.17 33.17 0 0 1-.043-1.705V3.883h1.556v14.05h-1.45M137.553 18.145c-1.834 0-3.07-.596-3.838-1.108l.746-1.258c.534.384 1.664.98 3.07.98 1.28 0 2.793-.618 2.793-2.11 0-2.473-3.368-2.985-5.095-4.84a3.565 3.565 0 0 1-1.002-2.537c0-1.983 1.492-3.496 4.05-3.496 1.492 0 2.495.362 3.114.682v1.663c-.747-.512-1.919-.916-3.071-.916-1.364 0-2.559.553-2.559 1.918 0 3.134 6.226 3.156 6.226 7.377 0 2.174-1.898 3.645-4.434 3.645M156.613 17.932l-1.45-3.752h-5.65l-1.342 3.752h-1.558l5.374-14.092h.873l5.393 14.092zm-5.906-15.094a1.005 1.005 0 0 1-1.002-1.023c0-.576.447-1.024 1.002-1.024.554 0 1.002.448 1.002 1.024 0 .575-.448 1.023-1.002 1.023zm2.238 5.201c-.254-.724-.426-1.278-.533-1.747h-.02c-.13.512-.3 1.023-.555 1.727l-1.749 4.775h4.52zm1.387-5.201a1.006 1.006 0 0 1-1.003-1.023c0-.576.448-1.024 1.003-1.024.553 0 1.001.448 1.001 1.024 0 .575-.448 1.023-1.001 1.023M171.899 5.332h-3.987v12.6h-1.557v-12.6h-4.028v-1.45h10.126l-.554 1.45M184.925 17.932c-2.26-3.582-3.581-5.841-4.2-5.97h-1.513v5.97h-1.557V3.882h2.9c3.305 0 4.646 1.685 4.646 3.795 0 2.005-1.278 3.262-2.749 3.796v.02c.448.214 2.047 2.837 4.328 6.44zm-4.37-12.6h-1.343v5.245h1.428c1.641 0 2.879-1.258 2.879-2.729 0-1.343-.726-2.516-2.964-2.516M200.765 17.932l-1.449-3.752h-5.65l-1.343 3.752h-1.556L196.14 3.84h.875l5.392 14.092zM197.1 8.04c-.255-.724-.426-1.278-.532-1.747h-.023c-.127.512-.299 1.023-.553 1.727l-1.748 4.775h4.518L197.1 8.04M223.201 18.145c-4.136 0-6.993-2.877-6.993-7.013 0-4.393 2.943-7.356 7.335-7.356 1.705 0 3.197.49 3.901.853v1.684c-.873-.47-2.324-1.087-3.987-1.087-3.54 0-5.586 2.323-5.586 5.692 0 3.624 2.197 5.778 5.693 5.778 1.3 0 2.153-.256 2.687-.576v-4.968h1.556v5.885c-.768.426-2.538 1.108-4.606 1.108M243.072 17.932l-1.45-3.752h-5.65l-1.344 3.752h-1.555l5.308-13.943c-.938-.213-1.534-.938-1.534-1.982 0-1.216.873-2.004 2.068-2.004 1.193 0 2.046.788 2.046 2.004 0 1.044-.661 1.79-1.6 1.982l5.352 13.943zm-3.667-9.893c-.257-.724-.428-1.278-.534-1.747h-.02c-.128.512-.299 1.023-.556 1.727l-1.748 4.775h4.521zm-.512-7.248c-.661 0-1.066.47-1.066 1.194 0 .768.425 1.194 1.066 1.194.703 0 1.066-.426 1.066-1.194 0-.725-.406-1.194-1.066-1.194M257.419 17.932c-2.259-3.582-3.582-5.841-4.199-5.97h-1.515v5.97h-1.556V3.882h2.9c3.303 0 4.647 1.685 4.647 3.795 0 2.005-1.279 3.262-2.75 3.796v.02c.449.214 2.047 2.837 4.329 6.44zm-4.37-12.6h-1.344v5.245h1.428c1.643 0 2.879-1.258 2.879-2.729 0-1.343-.724-2.516-2.963-2.516M267.824 17.932h-3.133V3.882h3.048c5.35 0 7.653 3.006 7.653 6.887 0 3.88-2.281 7.163-7.568 7.163zm.192-12.6h-1.77v11.15h1.727c4.327 0 5.82-2.686 5.82-5.735 0-2.942-1.769-5.415-5.777-5.415" fill="#231f20"/><g clip-path="url(#a)" transform="matrix(.13333 0 0 -.13333 0 45.973)"><path d="M244.449 324.805c1.684.843 4.774 1.968 6.742 3.937 1.547-2.25 4.356-3.652 6.743-2.25 6.183-11.379 22.062 2.391 24.164-14.043 6.465-12.23 21.636-6.324 32.031-7.871 14.191-1.543 29.219 8.992 43.273 9.555v.558c3.368-.14 4.774-3.23 3.368-6.179-11.094-17.282-31.465-28.942-50.012-36.528-.137-1.402 1.547-1.125 2.25-1.687l.562.562-.562-.562c2.949-2.109 8.008-.418 9.551-4.496l.562.562c.426-1.683 1.547-3.09 1.121-5.058-5.054-3.512-6.039-11.235-11.797-13.489-9.129-6.457 5.477-12.781.563-20.226 3.652-2.949-2.531-7.586 1.121-11.242l1.125-2.246c.418-16.293-12.918-32.875-3.371-48.891l-.567-.563.567-.562c7.023-22.758 19.668-46.359 25.285-70.242-1.68-12.363-10.531-21.774-15.734-32.59-5.196-4.352-13.059-5.2-16.297-12.922-13.907-10.539-31.047.14-44.391-10.125-14.187-5.05-27.539-13.48-44.394-10.105-5.336 1.82-10.672 5.476-16.297 0-4.075-2.954-6.461-6.75-11.239-7.871-6.32-7.446-16.296-10.68-25.285-14.047-8.996-3.235-19.953-1.266-29.226 0L123.066 0c-15.589 4.918-31.605-4.496-44.39 10.676L59.004 28.664c2.11 5.477-5.621 5.195-7.867 8.988-.703 4.496-4.918 8.426-3.93 12.926-2.953 5.336-3.234 13.067-6.184 19.106-13.347 19.804-7.167 38.07-9.554 62.933-2.528 3.375 1.406 7.59-2.809 9.555 2.106 3.937-1.547 10.68-.558 14.613-6.184 38.629-4.22 76.707-6.746 115.199-3.231 3.512-.704 5.336-2.25 9.555C11.383 288.844-2.531 297.27 0 309.633c2.25 1.828 0 5.48 4.496 5.621 2.672-1.965 8.711 2.246 7.305-3.375 4.633-1.121 12.222-1.684 18.547-2.246 2.804 2.816 2.949 9.836 8.988 7.867 1.824 4.918 8.434.844 11.238 4.496 13.489-8.848 31.754.707 45.52-3.933 8.711-.981 17.136 1.824 25.289.562 9.691.984 21.492-4.777 30.344 1.125 5.195-2.812 10.539 2.809 14.05 5.055 10.395 1.968 20.227-4.918 28.102 3.937 2.664.985 6.457.141 7.863 2.805 13.203-6.457 28.098-8.703 42.707-6.742" fill="#231f20" fill-rule="evenodd"/></g><path d="M29.446 3.265l.075-.075.15.15c1.368.094 2.492-.3 3.821-.225.037-.3.45-.037.6-.224.412.711 1.61.862 2.323 1.198.075.187.13.469.374.525l-.075.075.674.524.076-.075c1.011.637.187 1.461.823 2.248.674 2.622 1.574 5.114 2.698 7.643.132-.02.057.205.075.299h-.075c-.038 2.005.224 3.878-.524 5.62-.244 4.215 2.847 7.698 3.221 11.838-.318 1.668-.505 3.391-1.798 4.646l-.075-.075-.15.15c-.88.093-1.798.093-2.622.3-1.78.3-3.896.037-5.92.224-.505-.131-.992-.693-1.498-.375-.075.319.168.375.375.525 1.067.337 2.173.767 3.447.374 1.049-.337 2.322.038 3.221-.224.562.262 1.049.075 1.573.45-.917 1.217-2.959.374-4.345.674-1.311 1.067-2.96 1.161-4.42 2.023-1.068.113-2.38.524-3.223-.376.02-.373.581-.711.225-1.048-.43.15-.637.543-1.124.45l-.374.749c-2.08 1.723-4.215 3.521-7.119 3.372-.43-.131-.655-.3-.749-.75-.262-.505-.75.02-1.049-.15-.13.544-.562.918-1.049 1.2h-.524c.037-.45-.112-.88.3-1.275.112-.636 0-1.386.674-1.798 1.18-.206 2.585-.973 3.147-2.247-.112-2.623.412-4.909.974-7.343.543-.73 1.48-1.536 1.274-2.548-.337-.75-.15-1.798-1.049-2.248-.993-2.079-1.18-4.495-1.274-6.668.543-.768 1.067-1.648.9-2.622-1.219-1.574-1.106-4.177-2.25-5.77-.167-.468.45-.618.75-.75 1.555-.448 1.293-2.94 1.949-4.42-.057-.43-.02-1.104-.375-1.499-.431-.168-.712-.655-1.199-.674.056-.412.113-1.03.675-1.048.337-.338 1.067.168 1.199-.525l-.075-.075c1.217-.394 2.96.187 3.97-.524.507-.056.825.15 1.2-.225.786.261 1.592.037 2.172.599" fill="#fff" fill-rule="evenodd"/><path d="M29.446 3.265l.075-.075.15.15c1.368.094 2.492-.3 3.821-.225.037-.3.45-.037.6-.224.412.711 1.61.862 2.323 1.198.075.187.13.469.374.525l-.075.075.674.524.076-.075c1.011.637.187 1.461.823 2.248.674 2.622 1.574 5.114 2.698 7.643.132-.02.057.205.075.299h-.075c-.038 2.005.224 3.878-.524 5.62-.244 4.215 2.847 7.698 3.221 11.838-.318 1.668-.505 3.391-1.798 4.646l-.075-.075-.15.15c-.88.093-1.798.093-2.622.3-1.78.3-3.896.037-5.92.224-.505-.131-.992-.693-1.498-.375-.075.319.168.375.375.525 1.067.337 2.173.767 3.447.374 1.049-.337 2.322.038 3.221-.224.562.262 1.049.075 1.573.45-.917 1.217-2.959.374-4.345.674-1.311 1.067-2.96 1.161-4.42 2.023-1.068.113-2.38.524-3.223-.376.02-.373.581-.711.225-1.048-.43.15-.637.543-1.124.45l-.374.749c-2.08 1.723-4.215 3.521-7.119 3.372-.43-.131-.655-.3-.749-.75-.262-.505-.75.02-1.049-.15-.13.544-.562.918-1.049 1.2h-.524c.037-.45-.112-.88.3-1.275.112-.636 0-1.386.674-1.798 1.18-.206 2.585-.973 3.147-2.247-.112-2.623.412-4.909.974-7.343.543-.73 1.48-1.536 1.274-2.548-.337-.75-.15-1.798-1.049-2.248-.993-2.079-1.18-4.495-1.274-6.668.543-.768 1.067-1.648.9-2.622-1.219-1.574-1.106-4.177-2.25-5.77-.167-.468.45-.618.75-.75 1.555-.448 1.293-2.94 1.949-4.42-.057-.43-.02-1.104-.375-1.499-.431-.168-.712-.655-1.199-.674.056-.412.113-1.03.675-1.048.337-.338 1.067.168 1.199-.525l-.075-.075c1.217-.394 2.96.187 3.97-.524.507-.056.825.15 1.2-.225.786.261 1.592.037 2.172.599z" fill="none" stroke="#fff" stroke-width=".9999750000000001" stroke-miterlimit="3.864"/><path d="M47.204 5.213c-2.154 1.873-4.683 3.86-7.493 3.672-.225-.562-.356-1.05-.75-1.5-.055-.45-.542-.898-.149-1.347.094.018.244-.057.3.074l.075-.074c.394-.057 1.742.13 2.622-.15.113.093.468-.057.675 0 .468-.263 1.386-.076 1.798-.45.861.113 1.311-.487 2.248-.675.13.17.899-.149.674.45" fill="#fff" fill-rule="evenodd"/><path d="M47.204 5.213c-2.154 1.873-4.683 3.86-7.493 3.672-.225-.562-.356-1.05-.75-1.5-.055-.45-.542-.898-.149-1.347.094.018.244-.057.3.074l.075-.074c.394-.057 1.742.13 2.622-.15.113.093.468-.057.675 0 .468-.263 1.386-.076 1.798-.45.861.113 1.311-.487 2.248-.675.13.17.899-.149.674.45z" fill="none" stroke="#fff" stroke-width=".9999750000000001" stroke-miterlimit="3.864"/><path d="M2.173 5.513c.112.355.374-.056.525.15 2.604.3 5.394 1.273 8.092.899l-.075-.075c.337.281.805-.225 1.199 0 .187-.393.674.019.974-.225 1.03-.525 2.397-.505 3.52-.6l.15.15.076-.075c1.517.02 2.941-.093 4.346.375.45.6.13 1.424-.075 2.023-.244 1.124-.282 2.36-1.424 2.922-2.697.281-5.15.431-7.792.15-.207-.3-.637-.037-.9-.224-2.603-.6-5.544-1.293-7.492-3.222-.955.056-1.386-.825-2.098-1.424-.075-.45-.58-.73-.6-1.2.525.132 1.087.395 1.574.376" fill="#fff" fill-rule="evenodd"/><path d="M2.173 5.513c.112.355.374-.056.525.15 2.604.3 5.394 1.273 8.092.899l-.075-.075c.337.281.805-.225 1.199 0 .187-.393.674.019.974-.225 1.03-.525 2.397-.505 3.52-.6l.15.15.076-.075c1.517.02 2.941-.093 4.346.375.45.6.13 1.424-.075 2.023-.244 1.124-.282 2.36-1.424 2.922-2.697.281-5.15.431-7.792.15-.207-.3-.637-.037-.9-.224-2.603-.6-5.544-1.293-7.492-3.222-.955.056-1.386-.825-2.098-1.424-.075-.45-.58-.73-.6-1.2.525.132 1.087.395 1.574.376z" fill="none" stroke="#fff" stroke-width=".9999750000000001" stroke-miterlimit="3.864"/><path d="M28.023 20.499c-.038.505.056 1.142.449 1.573-.787.093-1.648-.225-2.547-.225-.562-.337-1.011-.767-1.124-1.424.337-.693 1.161-.805 1.798-1.049.487.15 1.33.394 1.424 1.125M40.01 32.561c-.074.544-.487.862-.224 1.35.394.411.993.842.749 1.423-.112.525-.486.093-.824.224-.543-.206-.768-.805-.974-1.273-.019-.75.281-1.35.6-1.949.224.057.636-.15.674.225" fill="#231f20" fill-rule="evenodd"/><path d="M202.76 28.294h13.213v13.213H202.76z" fill="#8e9293" fill-rule="evenodd"/><path d="M222.933 28.294h13.214v13.213h-13.214V28.294" fill="#6d502d" fill-rule="evenodd"/><path d="M242.573 28.294h13.214v13.213h-13.214V28.294" fill="#60891e" fill-rule="evenodd"/><path d="M261.773 28.294h13.214v13.213h-13.214V28.294" fill="#1b79b4" fill-rule="evenodd"/><path d="M72.045 28.739c-.319-.24-.72-.4-1.3-.4-.981 0-1.781.66-2.101 2.22l-.24 1.202h2.26l-.52 1.241h-1.92c-.76 4.583-1.382 10.547-4.644 12.928l-.82-.92c2.521-2.202 3.102-6.265 4.062-12.008h-1.3l.18-1.241h1.26l.26-1.321c.52-2.682 2.162-3.382 3.623-3.382.62 0 1.261.14 1.821.48l-.62 1.2M77.51 40.126c-.861.801-1.942 1.281-3.143 1.281-1.14 0-1.981-.32-2.542-.88-.74-.72-1.04-1.821-1.04-3.022 0-1.821.64-3.503 1.741-4.604a4.608 4.608 0 0 1 3.302-1.36c1.141 0 1.962.36 2.522.94.68.7.98 1.721.98 2.902 0 1.961-.68 3.683-1.82 4.743zm-.28-6.744c-.34-.36-.841-.56-1.522-.56-.86 0-1.6.38-2.161.98-.84.92-1.301 2.322-1.301 3.743 0 .88.24 1.68.76 2.14.36.322.82.5 1.441.5.72 0 1.361-.318 1.882-.8.94-.92 1.52-2.46 1.52-3.922 0-.88-.16-1.62-.62-2.08zm-2.743-3.402c-.52 0-.94-.42-.94-.961 0-.54.42-.96.94-.96s.942.42.942.96-.421.96-.942.96zm3.403 0a.944.944 0 0 1-.941-.961c0-.54.42-.96.941-.96.52 0 .94.42.94.96s-.42.96-.94.96M86.735 33.222c-.22-.12-.56-.18-.86-.18-1.02 0-2.242 1.12-3.002 4.763l-.72 3.422H80.71l2.022-9.466h1.16l-.36 1.94h.02c.621-1.4 1.521-2.16 2.742-2.16.52 0 .86.14 1.141.3l-.7 1.38M98.345 40.767c-.68.34-1.841.64-2.881.64-2.303 0-4.083-1.56-4.083-4.102 0-3.162 2.161-5.764 5.844-5.764.5 0 1.06.06 1.58.2l1.001-4.683h1.441zm-1.321-7.966c-2.361 0-4.182 1.642-4.182 4.383 0 1.982 1.3 2.983 2.741 2.983.56 0 1.221-.16 1.521-.32l1.421-6.746c-.28-.14-.82-.3-1.501-.3M102.407 41.227h-1.44l2.002-9.466h1.44zm1.682-11.428c-.58 0-.921-.34-.921-.9 0-.68.58-1.18 1.18-1.18.622 0 .941.42.941.9 0 .68-.58 1.18-1.2 1.18M113.375 36.144l-1.08 5.083h-1.442l1.161-5.483c.12-.561.26-1.322.24-1.842-.02-.58-.24-1.06-1.021-1.06-1.04 0-3.162 1.22-3.842 4.463l-.82 3.922h-1.442l2.022-9.466h1.16l-.36 1.94h.02c.88-1.38 2.362-2.16 3.683-2.16 1.161 0 2.041.68 2.041 2.141 0 .8-.08 1.361-.32 2.462M125.204 33.002h-2.381l-1.2 5.623c-.06.26-.08.5-.08.681 0 .52.26.8.78.8.66 0 1.32-.42 1.602-.62l.399 1.06c-.66.5-1.501.861-2.482.861-.92 0-1.76-.54-1.76-1.92 0-.261.039-.541.099-.862l1.202-5.623h-1.542l.28-1.241h1.542l.44-2.142 1.441-.34-.501 2.482h2.682l-.52 1.241M131.648 33.222c-.22-.12-.56-.18-.86-.18-1.02 0-2.241 1.12-3.002 4.763l-.72 3.422h-1.44l2.02-9.466h1.161l-.36 1.94h.02c.62-1.4 1.521-2.16 2.741-2.16.521 0 .86.14 1.14.3l-.7 1.38M139.415 36.344l-.18.82c-.462 2.082-.422 3.003-.302 3.863l-1.181.3c-.119-.46-.239-.92-.26-1.561-.46.58-1.6 1.641-3.101 1.641-1.602 0-2.542-1.06-2.542-2.461 0-2.482 2.18-3.543 5.023-3.623l1.341-.04c.06-.24.12-.6.12-.86 0-.96-.621-1.581-1.761-1.581-1.021 0-2.041.44-2.901.86l-.16-1.32c1.36-.661 2.58-.841 3.341-.841 1.441 0 2.923.66 2.923 2.742 0 .62-.16 1.14-.36 2.06zm-2.263.2c-2.521 0-3.842.9-3.842 2.162 0 .9.54 1.46 1.42 1.46 1.222 0 2.723-1.18 3.043-2.861.06-.3.099-.541.139-.76zm-1.341-6.564a.945.945 0 0 1-.94-.961c0-.54.421-.96.94-.96.521 0 .941.42.941.96s-.42.96-.941.96zm3.402 0c-.52 0-.94-.42-.94-.961 0-.54.42-.96.94-.96.522 0 .942.42.942.96s-.42.96-.942.96M148.519 40.767c-.679.34-1.84.64-2.88.64-2.303 0-4.084-1.56-4.084-4.102 0-3.162 2.161-5.764 5.845-5.764.5 0 1.06.06 1.58.2l1-4.683h1.441zm-1.32-7.966c-2.362 0-4.183 1.642-4.183 4.383 0 1.982 1.301 2.983 2.741 2.983.562 0 1.222-.16 1.522-.32L148.7 33.1c-.281-.14-.821-.3-1.501-.3M158.245 41.648c-.458 2.2-1.48 4.302-4.362 4.302-1.242 0-2.382-.26-3.282-.82l.62-1.24c.82.52 1.622.78 2.422.78 1.901 0 2.702-1.04 3.262-3.343l.36-1.501h-.02c-.94 1.181-2.121 1.581-3.061 1.581-1.641 0-2.743-1.1-2.743-3.462 0-2.882 1.862-6.404 6.064-6.404 1.162 0 2.183.26 2.743.5zm-1.16-8.806c-2.481 0-4.182 2.52-4.182 4.903 0 1.54.48 2.422 1.581 2.422.86 0 2.761-.881 3.483-4.204l.618-2.901c-.418-.16-1.018-.22-1.5-.22M168.693 36.344l-.18.82c-.461 2.082-.421 3.003-.301 3.863l-1.18.3c-.12-.46-.24-.92-.26-1.561-.461.58-1.601 1.641-3.103 1.641-1.6 0-2.541-1.06-2.541-2.461 0-2.482 2.181-3.543 5.023-3.623l1.341-.04c.06-.24.12-.6.12-.86 0-.96-.62-1.581-1.76-1.581-1.021 0-2.043.44-2.903.86l-.16-1.32c1.36-.661 2.582-.841 3.342-.841 1.442 0 2.922.66 2.922 2.742 0 .62-.16 1.14-.36 2.06zm-2.262.2c-2.522 0-3.843.9-3.843 2.162 0 .9.54 1.46 1.423 1.46 1.22 0 2.721-1.18 3.041-2.861.06-.3.1-.541.141-.76zm.141-5.784c-1.081 0-1.741-.66-1.741-1.64 0-1.402 1.081-2.142 2.141-2.142 1.08 0 1.761.64 1.761 1.62 0 1.441-1.1 2.162-2.161 2.162zm.34-3.042c-.74 0-1.161.64-1.161 1.261 0 .66.34.98.88.98.741 0 1.162-.64 1.162-1.26 0-.621-.32-.98-.881-.98M176.459 33.222c-.22-.12-.56-.18-.862-.18-1.021 0-2.242 1.12-3.002 4.763l-.72 3.422h-1.442l2.023-9.466h1.16l-.36 1.94h.02c.62-1.4 1.521-2.16 2.743-2.16.518 0 .86.14 1.14.3l-.7 1.38M183.576 40.767c-.68.34-1.841.64-2.883.64-2.301 0-4.082-1.56-4.082-4.102 0-3.162 2.161-5.764 5.844-5.764.501 0 1.061.06 1.581.2l1-4.683h1.441zm-1.321-7.966c-2.362 0-4.183 1.642-4.183 4.383 0 1.982 1.3 2.983 2.741 2.983.56 0 1.222-.16 1.522-.32l1.42-6.746c-.28-.14-.82-.3-1.5-.3" fill="#231f20"/></svg>