<svg width="220" height="42" viewBox="0 0 220 42" xmlns="http://www.w3.org/2000/svg"><g fill="none" fill-rule="evenodd"><g fill-rule="nonzero" fill="#231F20" class="header-logo__color--black"><path d="M63.008 11.391h23.685v30.35H63.008v-30.35zM195.644 11.39h24.16v30.351h-24.16v-30.35zM116.063 11.391h23.685v30.35h-23.685v-30.35zM142.59 11.391h23.685v30.35H142.59v-30.35zM36.002 11.39h24.159v30.351H36.002v-30.35zM89.535 11.391h23.686v30.35H89.535v-30.35zM169.117 11.391h23.685v30.35h-23.685v-30.35zM22.468 1.693l7.187 7.494v8.059H19.418v4.535l3.017-3.14 10.69 11.147v11.987H11.73V29.782l2.713-2.823H1.622v-9.975l8.905-9.266 4.75 4.952.004-3.488 7.187-7.49z"/></g><path fill="#FFF" class="header-logo__color--white" fill-rule="nonzero" d="M20.695 2.004L14.94 8.022v5.89L8.288 7.766l-7.162 8.58.127 7.426 14.454.384-4.605 5.122.256 9.092 18.802.128-.64-10.5-9.08-8.836-3.454 3.586-.767-8.58 10.488-.256-.384-6.274zM37.195 12.376h18.802v25.482H37.195zM63.928 12.376H82.73v25.482H63.928zM90.66 12.376h18.802v25.482H90.66zM117.009 12.376h18.802v25.482h-18.802zM143.614 12.376h18.802v25.482h-18.802zM169.323 12.376h18.802v25.482h-18.802zM196.823 9.983h20.912v27.874h-20.912z"/><g fill-rule="nonzero"><path d="M20.814 16.949l-3.02 3.14v-4.536h10.238v-8.06L20.845 0 13.66 7.49l-.005 3.487-4.75-4.952-8.901 9.266v9.975h12.819l-2.712 2.822v11.994h21.397V28.096L20.814 16.95zm-4.912-8.457l4.958-5.194 4.921 5.158v4.727h-9.88V8.492zM2.855 22.335V16.53l6.118-6.425 6.088 6.425v5.804H2.856zm25.297 14.222H13.477v-6.978l7.355-7.725 7.321 7.673v7.03zM114.405 9.731v30.35h23.683V9.732h-23.683zm19.809 25.141h-4.002v-7.819h-7.93v7.82h-4V14.693h4v8.924h7.93v-8.924h4.002v20.178zM61.35 9.731v30.35h23.686V9.732H61.35zm17.025 25.134l-1.232-4.205h-7.306l-1.375 4.205h-4.017l6.848-20.167h4.451l6.67 20.167h-4.039zM87.878 9.731v30.35h23.685V9.732H87.878zm20.037 18.476c0 5.396-3.748 7.559-8.1 7.559-4.37 0-8.1-2.163-8.1-7.222V14.697h4.002V27.14c0 1.067 0 5.003 4.098 5.003s4.097-3.936 4.097-5.003V14.697h4.003v13.51zM167.46 9.731v30.35h23.684V9.732H167.46zm20.037 18.476c0 5.396-3.748 7.559-8.1 7.559-4.37 0-8.1-2.163-8.1-7.222V14.697h4.003V27.14c0 1.067 0 5.003 4.098 5.003 4.097 0 4.097-3.936 4.097-5.003V14.697h4.003v13.51zM34.344 9.73v30.351h24.16V9.731h-24.16zm14.019 25.138h-9.275v-20.18h9.354c2.728 0 5.973 1.507 5.973 5.085a5.042 5.042 0 0 1-2.995 4.487 5.546 5.546 0 0 1 3.468 5.059c-.002 3.412-3.27 5.55-6.525 5.55zM140.933 9.731v30.35h23.684V9.732h-23.684zm17.023 25.134l-1.232-4.205h-7.304l-1.374 4.205h-4.018l6.848-20.167h4.451l6.67 20.167H157.956zM193.987 9.73v30.351h24.158V9.731h-24.158zm15.223 25.136H199.2V30.86h9.39c1.038 0 2.187-.457 2.187-2.136 0-1.584-1.015-2.134-2.193-2.134l-4.295-.008c-3.202-.11-6.031-2.396-6.031-5.942 0-3.392 2.098-5.944 5.375-5.944h9.777v4.005h-9.256c-1.044 0-1.933.544-1.933 1.886a1.931 1.931 0 0 0 1.938 1.887h4.444c3.296.162 6.19 2.534 6.19 6.193 0 3.53-2.177 6.19-5.584 6.199zm5.98-19.681a2.488 2.488 0 0 1-2.493-2.481 2.488 2.488 0 0 1 2.476-2.499 2.488 2.488 0 0 1 2.498 2.476 2.483 2.483 0 0 1-2.48 2.504z" fill="#C00" class="header-logo__color--red"/><path fill="#CB2027" class="header-logo__color--red2" d="M70.872 27.363h5.115L73.44 19.43zM48.042 25.987h-4.948v5.522h4.948c.062 0 2.78.034 2.78-2.582a2.812 2.812 0 0 0-2.78-2.94zM50.436 20.272c0-2.088-2.178-2.34-2.393-2.34h-4.948v5h4.948a2.637 2.637 0 0 0 2.393-2.66zM150.454 27.363h5.115l-2.548-7.933zM215.907 12.05c0-.387-.332-.447-.636-.447h-.596v.925h.47c.397 0 .762-.02.762-.479z"/><path d="M215.19 10.571a2.127 2.127 0 0 0-1.62 3.599 2.122 2.122 0 0 0 3.652-1.489 2.045 2.045 0 0 0-2.031-2.11zm.748 3.575l-.787-1.252h-.476v1.252h-.45v-2.91h1.12c.687 0 1.012.274 1.012.832a.748.748 0 0 1-.762.793l.827 1.285h-.483z" fill="#CB2027" class="header-logo__color--red2"/></g></g></svg>